<svg width="127" height="127" viewBox="0 0 127 127" fill="none" xmlns="http://www.w3.org/2000/svg">
<path d="M7.97227 78.3346C14.0327 104.182 37.2328 123.428 64.9283 123.428C79.3006 123.428 92.4619 118.245 102.646 109.646L104.774 111.774C94.041 120.912 80.1292 126.428 64.9283 126.428C34.232 126.428 8.78871 103.939 4.1754 74.5377L7.97227 78.3346ZM62.9674 1.46447C64.92 -0.488155 68.0861 -0.488155 70.0387 1.46447L101.337 32.7623C103.289 34.7149 103.289 37.881 101.337 39.8336L73.4137 67.7565L115.671 110.014L110.014 115.671L67.7565 73.4137L39.8336 101.337C37.881 103.289 34.7149 103.289 32.7623 101.337L1.46446 70.0387C-0.488159 68.0861 -0.488159 64.92 1.46446 62.9674L62.9674 1.46447ZM74.5377 4.1754C103.939 8.78871 126.428 34.232 126.428 64.9283C126.428 80.1292 120.912 94.041 111.774 104.774L109.646 102.646C118.245 92.4619 123.428 79.3006 123.428 64.9283C123.428 37.2329 104.182 14.0327 78.3346 7.97228L74.5377 4.1754ZM56.0152 7.10216C30.8433 10.9503 10.9503 30.8433 7.10216 56.0152L3.66954 59.4488C6.28257 29.8558 29.8558 6.28257 59.4488 3.66954L56.0152 7.10216Z" fill="#D9D9D9"/>
</svg>
